<svg xmlns="http://www.w3.org/2000/svg" viewBox="0 0 1009.54 698.63"><defs><style>.cls-1,.cls-4{fill:#f9a826;}.cls-1,.cls-5{opacity:0.1;}.cls-1,.cls-10,.cls-5,.cls-8{isolation:isolate;}.cls-2{opacity:0.2;}.cls-3{fill:#3f3d56;}.cls-6{fill:#35323e;}.cls-10,.cls-7{fill:#fff;}.cls-10,.cls-8{opacity:0.03;}.cls-9{fill:#464353;}.cls-11{fill:#444053;}</style></defs><g id="Layer_2" data-name="Layer 2"><g id="e5ba4dba-d7c6-4394-adcb-ad50fd27ea2d"><path class="cls-1" d="M586.55,111.4c-64.72-2.25-126.36-23.14-185.22-46S284.17,17.21,221,5.1C180.37-2.69,133.9-3.79,101.17,18,69.66,39,59.48,75.13,54,108.71c-4.12,25.26-6.54,51.84,4.74,75.49,7.84,16.42,21.74,30.22,31.36,46,33.47,54.72,9.81,122.2-26.45,175.63-17,25.07-36.75,49-49.88,75.66s-19.2,57.25-7.71,84.47c11.38,27,38.51,47.24,67.9,61.49,59.69,28.94,130,37.23,198.61,41.92,151.83,10.39,304.46,5.89,456.69,1.39,56.34-1.67,112.92-3.36,168.34-12.07,30.78-4.84,62.55-12.52,84.9-31,28.36-23.53,35.39-63.38,16.38-92.88C967,485.27,878.89,473,856.58,419.86c-12.26-29.23.33-61.8,18.16-88.91C913,272.79,977.07,221.76,980.44,155.28c2.32-45.67-28.49-91.4-76.13-113-49.93-22.65-119.18-19.8-156,17.69C710.36,98.53,643.7,113.38,586.55,111.4Z"/><g class="cls-2"><path class="cls-3" d="M249,627.27a23.25,23.25,0,0,1,1.5,3.57q-12,4.53-24,9.5c-.17-.29-.34-.6-.5-.91A20.56,20.56,0,0,1,223.47,629c.21-4.69,2.29-8.73,6-10.68s8.21-1.41,12.2,1A20.7,20.7,0,0,1,249,627.27Z"/><ellipse class="cls-3" cx="227.73" cy="614.92" rx="13.02" ry="17.05" transform="translate(-260.81 177.52) rotate(-27.84)"/><ellipse class="cls-3" cx="218" cy="596.49" rx="13.02" ry="17.05" transform="translate(-253.33 170.85) rotate(-27.84)"/><ellipse class="cls-3" cx="208.27" cy="578.07" rx="13.02" ry="17.05" transform="translate(-245.86 164.17) rotate(-27.84)"/><ellipse class="cls-3" cx="198.53" cy="559.65" rx="13.02" ry="17.05" transform="translate(-238.38 157.49) rotate(-27.84)"/><path class="cls-4" d="M88.84,456.36a63.55,63.55,0,0,1-7.62-4l27.63-21L76.26,448.89a62.49,62.49,0,0,1-24.13-43.15l55.92-.41L51.85,397a62.38,62.38,0,0,1,124.68,4.71,63.42,63.42,0,0,1-1,8.91,61.88,61.88,0,0,1,11.6,6.74l-28.49,41.14,34.45-36.17a62.42,62.42,0,0,1,18.46,56.49,62.38,62.38,0,1,1-86.7,45.78,62.39,62.39,0,0,1-36-68.19Z"/><path class="cls-5" d="M205.35,438.44a62.07,62.07,0,0,1,6.21,40.33,62.38,62.38,0,1,1-86.7,45.78C112.51,519.07,202.08,432.25,205.35,438.44Z"/></g><g class="cls-2"><path class="cls-3" d="M691.54,496.75a33.19,33.19,0,0,0-1.38,5.2q17.43,3.92,34.85,8.49c.18-.43.36-.89.53-1.35a28.43,28.43,0,0,0,1.39-14.87c-1.19-6.4-4.82-11.56-10.31-13.55s-11.56-.37-16.58,3.76A28.66,28.66,0,0,0,691.54,496.75Z"/><ellipse class="cls-3" cx="718.41" cy="475.72" rx="23.67" ry="18.08" transform="translate(26.03 988.58) rotate(-70.04)"/><ellipse class="cls-3" cx="727.2" cy="447.72" rx="23.66" ry="18.07" transform="translate(58.83 979.28) rotate(-70.11)"/><ellipse class="cls-3" cx="738.16" cy="421.33" rx="23.67" ry="18.08" transform="translate(90.16 971.32) rotate(-70.04)"/><ellipse class="cls-3" cx="748.04" cy="394.14" rx="23.67" ry="18.08" transform="translate(122.22 962.7) rotate(-70.04)"/><path class="cls-4" d="M879.26,231.17a84.59,84.59,0,0,0,9.72-7l-42-23.55,48.17,17.9a86.68,86.68,0,0,0,25-63.94l-77,10.08,75.71-22.22a86.62,86.62,0,0,0-170.57,30.3,87.74,87.74,0,0,0,3,12,87.93,87.93,0,0,0-14.67,11.47l47,51.17-54.27-43.21a86.67,86.67,0,0,0-14.6,81.22,86.61,86.61,0,1,0,128,46.48,86.62,86.62,0,0,0,36.56-100.67Z"/><path class="cls-5" d="M715.59,228.69a86.3,86.3,0,0,0-.86,56.67,86.61,86.61,0,1,0,128,46.48C858.64,322,718.91,219.56,715.59,228.69Z"/></g><ellipse class="cls-4" cx="180.47" cy="642.47" rx="67.3" ry="12.94"/><ellipse class="cls-3" cx="179.34" cy="636.97" rx="7.84" ry="10.26"/><ellipse class="cls-3" cx="179.34" cy="624.43" rx="7.84" ry="10.26"/><ellipse class="cls-3" cx="179.34" cy="611.89" rx="7.84" ry="10.26"/><ellipse class="cls-3" cx="179.34" cy="599.36" rx="7.84" ry="10.26"/><ellipse class="cls-3" cx="179.34" cy="586.82" rx="7.84" ry="10.26"/><ellipse class="cls-3" cx="179.34" cy="574.28" rx="7.84" ry="10.26"/><ellipse class="cls-3" cx="179.34" cy="561.75" rx="7.84" ry="10.26"/><path class="cls-4" d="M208.68,476a35.65,35.65,0,0,0,2.91-4.3L191,468.3l22.26.17a37.5,37.5,0,0,0,.72-29.74l-29.87,15.49L211.67,434a37.54,37.54,0,1,0-62,42,37.59,37.59,0,0,0-4.29,6.84l26.73,13.89-28.5-9.57a37.58,37.58,0,0,0,6.06,35.25,37.53,37.53,0,1,0,59,0,37.53,37.53,0,0,0,0-46.41Z"/><path class="cls-5" d="M141.64,499.15a37.4,37.4,0,0,0,8,23.21,37.53,37.53,0,1,0,59,0C213.71,516,141.64,495,141.64,499.15Z"/><rect class="cls-6" x="268.41" y="178.37" width="483.61" height="104.35" rx="7.42"/><path class="cls-7" d="M309.34,52.15S316.21,239,304,260.85H715.77s-17.49-143.71,0-208.7Z"/><path class="cls-8" d="M309.34,52.15S316.21,239,304,260.85H715.77s-17.49-143.71,0-208.7Z"/><rect class="cls-6" x="351.51" y="252.89" width="301.79" height="37.49"/><path class="cls-9" d="M787.67,694.19H228.31a29.82,29.82,0,0,1-29.82-29.81,30.45,30.45,0,0,1,.18-3.31L210.11,558q1.14-10.28,1.63-20.61l2.15-69.9q.75-23.69,3.2-47.26,1.29-12.21,3-24.39L234.8,293.34a54,54,0,0,1,53.4-46.2h22.34A52.5,52.5,0,0,1,342,257.71c23.14,17.27,88.88,29.73,166.38,29.73S651.58,275,674.77,257.67a52.54,52.54,0,0,1,31.41-10.57h36.19a32.35,32.35,0,0,1,31.86,26.74l19.75,112q3,17.09,5.09,34.3,3.48,28.64,4.37,57.51l2,65A365.4,365.4,0,0,0,809,583.07l10.61,74.31a32.21,32.21,0,0,1-31.89,36.81Z"/><rect class="cls-5" x="241.55" y="434.88" width="534.22" height="229.63" rx="19.96"/><ellipse class="cls-4" cx="275.91" cy="461.74" rx="15.31" ry="12.81"/><ellipse class="cls-5" cx="275.91" cy="461.74" rx="15.31" ry="12.81"/><ellipse class="cls-4" cx="275.91" cy="458.93" rx="15.31" ry="12.81"/><ellipse class="cls-6" cx="294.03" cy="506.42" rx="15.31" ry="12.81"/><ellipse class="cls-5" cx="294.03" cy="506.42" rx="15.31" ry="12.81"/><ellipse class="cls-6" cx="294.03" cy="503.61" rx="15.31" ry="12.81"/><ellipse class="cls-6" cx="304.03" cy="551.1" rx="15.31" ry="12.81"/><ellipse class="cls-5" cx="304.03" cy="551.1" rx="15.31" ry="12.81"/><ellipse class="cls-6" cx="304.03" cy="548.29" rx="15.31" ry="12.81"/><ellipse class="cls-6" cx="265.29" cy="556.41" rx="15.31" ry="12.81"/><ellipse class="cls-5" cx="265.29" cy="556.41" rx="15.31" ry="12.81"/><ellipse class="cls-6" cx="265.29" cy="553.6" rx="15.31" ry="12.81"/><ellipse class="cls-6" cx="322.77" cy="595.77" rx="15.31" ry="12.81"/><ellipse class="cls-5" cx="322.77" cy="595.77" rx="15.31" ry="12.81"/><ellipse class="cls-6" cx="322.77" cy="592.96" rx="15.31" ry="12.81"/><ellipse class="cls-6" cx="271.54" cy="597.34" rx="15.31" ry="12.81"/><ellipse class="cls-5" cx="271.54" cy="597.34" rx="15.31" ry="12.81"/><ellipse class="cls-6" cx="271.54" cy="594.52" rx="15.31" ry="12.81"/><ellipse class="cls-6" cx="364.95" cy="595.77" rx="15.31" ry="12.81"/><ellipse class="cls-5" cx="364.95" cy="595.77" rx="15.31" ry="12.81"/><ellipse class="cls-6" cx="364.95" cy="592.96" rx="15.31" ry="12.81"/><ellipse class="cls-6" cx="409.62" cy="595.77" rx="15.31" ry="12.81"/><ellipse class="cls-5" cx="409.62" cy="595.77" rx="15.31" ry="12.81"/><ellipse class="cls-6" cx="409.62" cy="592.96" rx="15.31" ry="12.81"/><ellipse class="cls-6" cx="450.86" cy="595.77" rx="15.31" ry="12.81"/><ellipse class="cls-5" cx="450.86" cy="595.77" rx="15.31" ry="12.81"/><ellipse class="cls-6" cx="450.86" cy="592.96" rx="15.31" ry="12.81"/><ellipse class="cls-6" cx="496.47" cy="595.77" rx="15.31" ry="12.81"/><ellipse class="cls-5" cx="496.47" cy="595.77" rx="15.31" ry="12.81"/><ellipse class="cls-6" cx="496.47" cy="592.96" rx="15.31" ry="12.81"/><ellipse class="cls-6" cx="537.71" cy="595.77" rx="15.31" ry="12.81"/><ellipse class="cls-5" cx="537.71" cy="595.77" rx="15.31" ry="12.81"/><ellipse class="cls-6" cx="537.71" cy="592.96" rx="15.31" ry="12.81"/><ellipse class="cls-6" cx="578.63" cy="595.77" rx="15.31" ry="12.81"/><ellipse class="cls-5" cx="578.63" cy="595.77" rx="15.31" ry="12.81"/><ellipse class="cls-6" cx="578.63" cy="592.96" rx="15.31" ry="12.81"/><ellipse class="cls-6" cx="623" cy="595.77" rx="15.31" ry="12.81"/><ellipse class="cls-5" cx="623" cy="595.77" rx="15.31" ry="12.81"/><ellipse class="cls-6" cx="623" cy="592.96" rx="15.31" ry="12.81"/><ellipse class="cls-6" cx="664.55" cy="595.77" rx="15.31" ry="12.81"/><ellipse class="cls-5" cx="664.55" cy="595.77" rx="15.31" ry="12.81"/><ellipse class="cls-6" cx="664.55" cy="592.96" rx="15.31" ry="12.81"/><ellipse class="cls-6" cx="710.47" cy="595.77" rx="15.31" ry="12.81"/><ellipse class="cls-5" cx="710.47" cy="595.77" rx="15.31" ry="12.81"/><ellipse class="cls-6" cx="710.47" cy="592.96" rx="15.31" ry="12.81"/><ellipse class="cls-6" cx="757.65" cy="595.77" rx="15.31" ry="12.81"/><ellipse class="cls-5" cx="757.65" cy="595.77" rx="15.31" ry="12.81"/><ellipse class="cls-6" cx="757.65" cy="592.96" rx="15.31" ry="12.81"/><ellipse class="cls-6" cx="346.52" cy="551.1" rx="15.31" ry="12.81"/><ellipse class="cls-5" cx="346.52" cy="551.1" rx="15.31" ry="12.81"/><ellipse class="cls-6" cx="346.52" cy="548.29" rx="15.31" ry="12.81"/><ellipse class="cls-6" cx="389" cy="551.1" rx="15.31" ry="12.81"/><ellipse class="cls-5" cx="389" cy="551.1" rx="15.31" ry="12.81"/><ellipse class="cls-6" cx="389" cy="548.29" rx="15.31" ry="12.81"/><ellipse class="cls-6" cx="432.74" cy="551.1" rx="15.31" ry="12.81"/><ellipse class="cls-5" cx="432.74" cy="551.1" rx="15.31" ry="12.81"/><ellipse class="cls-6" cx="432.74" cy="548.29" rx="15.31" ry="12.81"/><ellipse class="cls-6" cx="474.6" cy="551.1" rx="15.31" ry="12.81"/><ellipse class="cls-5" cx="474.6" cy="551.1" rx="15.31" ry="12.81"/><ellipse class="cls-6" cx="474.6" cy="548.29" rx="15.31" ry="12.81"/><ellipse class="cls-6" cx="517.4" cy="551.1" rx="15.31" ry="12.81"/><ellipse class="cls-5" cx="517.4" cy="551.1" rx="15.31" ry="12.81"/><ellipse class="cls-6" cx="517.4" cy="548.29" rx="15.31" ry="12.81"/><ellipse class="cls-6" cx="558.33" cy="551.1" rx="15.31" ry="12.81"/><ellipse class="cls-5" cx="558.33" cy="551.1" rx="15.31" ry="12.81"/><ellipse class="cls-6" cx="558.33" cy="548.29" rx="15.31" ry="12.81"/><ellipse class="cls-6" cx="602.69" cy="551.1" rx="15.31" ry="12.81"/><ellipse class="cls-5" cx="602.69" cy="551.1" rx="15.31" ry="12.81"/><ellipse class="cls-6" cx="602.69" cy="548.29" rx="15.31" ry="12.81"/><ellipse class="cls-6" cx="644.87" cy="551.1" rx="15.31" ry="12.81"/><ellipse class="cls-5" cx="644.87" cy="551.1" rx="15.31" ry="12.81"/><ellipse class="cls-6" cx="644.87" cy="548.29" rx="15.31" ry="12.81"/><ellipse class="cls-6" cx="687.98" cy="551.1" rx="15.31" ry="12.81"/><ellipse class="cls-5" cx="687.98" cy="551.1" rx="15.31" ry="12.81"/><ellipse class="cls-6" cx="687.98" cy="548.29" rx="15.31" ry="12.81"/><ellipse class="cls-6" cx="731.09" cy="551.1" rx="15.31" ry="12.81"/><ellipse class="cls-5" cx="731.09" cy="551.1" rx="15.31" ry="12.81"/><ellipse class="cls-6" cx="731.09" cy="548.29" rx="15.31" ry="12.81"/><ellipse class="cls-6" cx="337.14" cy="506.42" rx="15.31" ry="12.81"/><ellipse class="cls-5" cx="337.14" cy="506.42" rx="15.31" ry="12.81"/><ellipse class="cls-6" cx="337.14" cy="503.61" rx="15.31" ry="12.81"/><ellipse class="cls-6" cx="380.26" cy="506.42" rx="15.31" ry="12.81"/><ellipse class="cls-5" cx="380.26" cy="506.42" rx="15.31" ry="12.81"/><ellipse class="cls-6" cx="380.26" cy="503.61" rx="15.31" ry="12.81"/><ellipse class="cls-6" cx="421.81" cy="506.42" rx="15.31" ry="12.81"/><ellipse class="cls-5" cx="421.81" cy="506.42" rx="15.31" ry="12.81"/><ellipse class="cls-6" cx="421.81" cy="503.61" rx="15.31" ry="12.81"/><ellipse class="cls-6" cx="463.36" cy="506.42" rx="15.31" ry="12.81"/><ellipse class="cls-5" cx="463.36" cy="506.42" rx="15.31" ry="12.81"/><ellipse class="cls-6" cx="463.36" cy="503.61" rx="15.31" ry="12.81"/><ellipse class="cls-6" cx="505.22" cy="506.42" rx="15.31" ry="12.81"/><ellipse class="cls-5" cx="505.22" cy="506.42" rx="15.31" ry="12.81"/><ellipse class="cls-6" cx="505.22" cy="503.61" rx="15.31" ry="12.81"/><ellipse class="cls-6" cx="546.46" cy="506.42" rx="15.31" ry="12.81"/><ellipse class="cls-5" cx="546.46" cy="506.42" rx="15.31" ry="12.81"/><ellipse class="cls-6" cx="546.46" cy="503.61" rx="15.31" ry="12.81"/><ellipse class="cls-6" cx="590.19" cy="506.42" rx="15.31" ry="12.81"/><ellipse class="cls-5" cx="590.19" cy="506.42" rx="15.31" ry="12.81"/><ellipse class="cls-6" cx="590.19" cy="503.61" rx="15.31" ry="12.81"/><ellipse class="cls-6" cx="631.43" cy="506.42" rx="15.31" ry="12.81"/><ellipse class="cls-5" cx="631.43" cy="506.42" rx="15.31" ry="12.81"/><ellipse class="cls-6" cx="631.43" cy="503.61" rx="15.31" ry="12.81"/><ellipse class="cls-6" cx="675.48" cy="506.42" rx="15.31" ry="12.81"/><ellipse class="cls-5" cx="675.48" cy="506.42" rx="15.31" ry="12.81"/><ellipse class="cls-6" cx="675.48" cy="503.61" rx="15.31" ry="12.81"/><ellipse class="cls-6" cx="718.59" cy="506.42" rx="15.31" ry="12.81"/><ellipse class="cls-5" cx="718.59" cy="506.42" rx="15.31" ry="12.81"/><ellipse class="cls-6" cx="718.59" cy="503.61" rx="15.31" ry="12.81"/><ellipse class="cls-6" cx="315.9" cy="461.74" rx="15.31" ry="12.81"/><ellipse class="cls-5" cx="315.9" cy="461.74" rx="15.31" ry="12.81"/><ellipse class="cls-6" cx="315.9" cy="458.93" rx="15.31" ry="12.81"/><ellipse class="cls-6" cx="358.39" cy="461.74" rx="15.31" ry="12.81"/><ellipse class="cls-5" cx="358.39" cy="461.74" rx="15.31" ry="12.81"/><ellipse class="cls-6" cx="358.39" cy="458.93" rx="15.31" ry="12.81"/><ellipse class="cls-6" cx="399.31" cy="461.74" rx="15.31" ry="12.81"/><ellipse class="cls-5" cx="399.31" cy="461.74" rx="15.31" ry="12.81"/><ellipse class="cls-6" cx="399.31" cy="458.93" rx="15.31" ry="12.81"/><ellipse class="cls-6" cx="441.49" cy="461.74" rx="15.31" ry="12.81"/><ellipse class="cls-5" cx="441.49" cy="461.74" rx="15.31" ry="12.81"/><ellipse class="cls-6" cx="441.49" cy="458.93" rx="15.31" ry="12.81"/><ellipse class="cls-6" cx="483.04" cy="461.74" rx="15.31" ry="12.81"/><ellipse class="cls-5" cx="483.04" cy="461.74" rx="15.31" ry="12.81"/><ellipse class="cls-6" cx="483.04" cy="458.93" rx="15.31" ry="12.81"/><ellipse class="cls-6" cx="525.53" cy="461.74" rx="15.31" ry="12.81"/><ellipse class="cls-5" cx="525.53" cy="461.74" rx="15.31" ry="12.81"/><ellipse class="cls-6" cx="525.53" cy="458.93" rx="15.31" ry="12.81"/><ellipse class="cls-6" cx="567.08" cy="461.74" rx="15.31" ry="12.81"/><ellipse class="cls-5" cx="567.08" cy="461.74" rx="15.31" ry="12.81"/><ellipse class="cls-6" cx="567.08" cy="458.93" rx="15.31" ry="12.81"/><ellipse class="cls-6" cx="609.25" cy="461.74" rx="15.31" ry="12.81"/><ellipse class="cls-5" cx="609.25" cy="461.74" rx="15.31" ry="12.81"/><ellipse class="cls-6" cx="609.25" cy="458.93" rx="15.31" ry="12.81"/><ellipse class="cls-6" cx="652.68" cy="461.74" rx="15.31" ry="12.81"/><ellipse class="cls-5" cx="652.68" cy="461.74" rx="15.31" ry="12.81"/><ellipse class="cls-6" cx="652.68" cy="458.93" rx="15.31" ry="12.81"/><ellipse class="cls-6" cx="695.16" cy="461.74" rx="15.31" ry="12.81"/><ellipse class="cls-5" cx="695.16" cy="461.74" rx="15.31" ry="12.81"/><ellipse class="cls-6" cx="695.16" cy="458.93" rx="15.31" ry="12.81"/><ellipse class="cls-4" cx="736.71" cy="461.74" rx="15.31" ry="12.81"/><ellipse class="cls-5" cx="736.71" cy="461.74" rx="15.31" ry="12.81"/><ellipse class="cls-4" cx="736.71" cy="458.93" rx="15.31" ry="12.81"/><rect class="cls-6" x="275.91" y="625.77" width="467.68" height="24.68" rx="9.07"/><rect class="cls-5" x="275.91" y="625.77" width="467.68" height="24.68" rx="9.07"/><rect class="cls-6" x="275.91" y="623.89" width="467.68" height="24.68" rx="9.07"/><path class="cls-5" d="M679.86,331.46c0,26.4-83.56,54.67-177.77,54.67s-164-30.46-164-56.86,69.81-38.74,164-38.74S679.86,305.06,679.86,331.46Z"/><ellipse class="cls-9" cx="762.64" cy="228.52" rx="10.31" ry="25.46"/><ellipse class="cls-9" cx="257.79" cy="228.52" rx="10.31" ry="25.46"/><rect class="cls-5" x="265.29" y="222.43" width="497.35" height="7.5"/><rect class="cls-9" x="265.29" y="221.18" width="497.35" height="7.5"/><path class="cls-9" d="M521.77,230.55C517.7,229.3,510.21,254,510.21,254H533S525.84,231.8,521.77,230.55Zm-.32,3.12a2.19,2.19,0,1,1-2.18,2.2h0a2.19,2.19,0,0,1,2.19-2.19h0Zm.26,7.06c2.67.65,7.4,12.31,7.4,12.31h-15s4.94-13,7.66-12.31Z"/><path class="cls-10" d="M799.07,420.17h-582q1.29-12.21,3-24.39L234.78,293.3a54,54,0,0,1,53.4-46.2h22.34a52.5,52.5,0,0,1,31.41,10.57c23.14,17.27,88.88,29.73,166.38,29.73S651.58,275,674.77,257.67a52.54,52.54,0,0,1,31.41-10.57h36.19a32.35,32.35,0,0,1,31.86,26.74l19.75,112Q797,403,799.07,420.17Z"/><path class="cls-5" d="M320.05,58.19l1.66,6.71,2.16-1.3c-.48-3-1.22-5.83-1.9-6.48Z"/><path class="cls-5" d="M320,57.1a1.46,1.46,0,0,1,.51,0c1.59.49,3.66,14.25,2,15.51a6.3,6.3,0,0,1-2.79,1.21h-.24L319,69.23l-.39.25v-.19a12,12,0,0,0-2.26-10.19Z"/><path class="cls-11" d="M319,69.3l.53,4.59A6.38,6.38,0,0,0,323,72.61c1.64-1.26-.43-15-2-15.51-1.26-.39-3.47,1.18-4.35,1.85A11.87,11.87,0,0,1,319,69.3Z"/><polygon class="cls-7" points="308.93 52.16 310.5 93.51 355.98 52.16 308.93 52.16"/><polygon class="cls-8" points="308.93 52.16 310.5 93.51 355.98 52.16 308.93 52.16"/><ellipse class="cls-4" cx="847.47" cy="692.13" rx="33.8" ry="6.5"/><ellipse class="cls-3" cx="846.9" cy="689.37" rx="3.94" ry="5.15"/><ellipse class="cls-3" cx="846.9" cy="683.07" rx="3.94" ry="5.15"/><ellipse class="cls-3" cx="846.9" cy="676.77" rx="3.94" ry="5.15"/><ellipse class="cls-3" cx="846.9" cy="670.48" rx="3.94" ry="5.15"/><ellipse class="cls-3" cx="846.9" cy="664.18" rx="3.94" ry="5.15"/><ellipse class="cls-3" cx="846.9" cy="657.88" rx="3.94" ry="5.15"/><ellipse class="cls-3" cx="846.9" cy="651.59" rx="3.94" ry="5.15"/><path class="cls-4" d="M861.64,608.5a19.48,19.48,0,0,0,1.46-2.16l-10.33-1.7,11.18.08a18.77,18.77,0,0,0,.36-14.93l-15,7.78,13.84-10.17a18.85,18.85,0,1,0-32.55,19A18.65,18.65,0,0,0,832,608.5a20.34,20.34,0,0,0-2.15,3.43l13.43,7L829,614.12a19,19,0,0,0,3,17.71,18.85,18.85,0,1,0,29.64,0,18.85,18.85,0,0,0,0-23.31Z"/><path class="cls-5" d="M828,620.15a18.86,18.86,0,0,0,4,11.66,18.85,18.85,0,1,0,29.64,0C864.16,628.6,828,618,828,620.15Z"/></g></g></svg>