<svg xmlns="http://www.w3.org/2000/svg" viewBox="0 0 396.75 202"><defs><style>.cls-1{fill:#3f3d56;}.cls-2{fill:#f9a826;}</style></defs><g id="Layer_2" data-name="Layer 2"><g id="e4bbe722-77af-4dff-9d23-13f94132c30a"><rect class="cls-1" width="396.75" height="202"/><rect class="cls-2" x="71.98" y="68.02" width="40.18" height="3.35"/><rect class="cls-2" x="125.55" y="68.02" width="40.18" height="3.35"/><rect class="cls-2" x="203.4" y="98.99" width="40.18" height="3.35"/><rect class="cls-2" x="257.81" y="98.99" width="40.18" height="3.35"/><rect class="cls-2" x="179.96" y="68.02" width="118.03" height="3.35"/><rect class="cls-2" x="71.98" y="98.99" width="118.03" height="3.35"/><rect class="cls-2" x="71.98" y="129.96" width="118.03" height="3.35"/><rect class="cls-2" x="215.95" y="129.96" width="82.03" height="3.35"/><polygon class="cls-2" points="60.68 82.15 46.55 68.02 60.68 53.88 63.51 56.71 52.2 68.02 63.51 79.33 60.68 82.15"/><polygon class="cls-2" points="336.07 147.45 333.24 144.62 344.55 133.31 333.24 122 336.07 119.17 350.2 133.31 336.07 147.45"/><rect class="cls-2" x="304.48" y="130.89" width="28.86" height="4" transform="translate(99.24 399.56) rotate(-73.14)"/></g></g></svg>