<svg xmlns="http://www.w3.org/2000/svg" viewBox="0 0 666.89 351.84"><defs><style>.cls-1{fill:#3f3d56;}.cls-2{fill:#f9a826;}.cls-3{opacity:0.1;isolation:isolate;}</style></defs><g id="Layer_2" data-name="Layer 2"><g id="ae37f038-3a9e-4b82-ad68-fc94ba16af2a"><circle class="cls-1" cx="566.93" cy="99.96" r="99.96"/><path class="cls-2" d="M609.84,125.74c-3.48-3.48-11.85-8.73-16-10.69-4.79-2.3-6.55-2.26-9.94.19-2.82,2-4.65,3.93-7.89,3.22s-9.66-5.55-15.87-11.74-11-12.57-11.72-15.86,1.21-5.08,3.23-7.9c2.44-3.39,2.51-5.15.19-9.94-2-4.15-7.19-12.5-10.7-16s-4.27-2.73-6.19-2a35.73,35.73,0,0,0-5.67,3c-3.48,2.33-5.43,4.27-6.8,7.19s-2.92,8.34,5,22.53a125.62,125.62,0,0,0,22.1,29.47h0a126.05,126.05,0,0,0,29.57,22.14c14.18,8,19.61,6.41,22.53,5.05s4.86-3.29,7.18-6.8a35.73,35.73,0,0,0,3-5.67C612.57,130,613.35,129.23,609.84,125.74Z"/><path class="cls-3" d="M566.93,0a100,100,0,1,0,100,100.05V100A100,100,0,0,0,566.93,0Zm0,186.62A86.67,86.67,0,1,1,653.6,100h0a86.67,86.67,0,0,1-86.67,86.67Z"/><circle class="cls-1" cx="337.28" cy="251.79" r="99.96"/><path class="cls-2" d="M394.13,221.59,364.2,252a.54.54,0,0,0,0,.76l0,0,21,22.33a3.61,3.61,0,1,1-5.11,5.11L359.2,258a.57.57,0,0,0-.8,0l-5.09,5.14a22.36,22.36,0,0,1-16,6.73A22.85,22.85,0,0,1,321,263l-4.89-5a.57.57,0,0,0-.8,0l-20.84,22.2a3.62,3.62,0,0,1-5.11,0h0a3.6,3.6,0,0,1,0-5.09l0,0,20.92-22.28a.6.6,0,0,0,0-.78l-29.93-30.45a.54.54,0,0,0-.78,0,.55.55,0,0,0-.16.39v60.93a8.93,8.93,0,0,0,8.89,8.89H386.2a8.93,8.93,0,0,0,8.89-8.89V222a.55.55,0,0,0-1-.39Z"/><path class="cls-2" d="M337.28,262.65a15.12,15.12,0,0,0,10.92-4.5l43.59-44.37a8.71,8.71,0,0,0-5.5-2H288.35a8.63,8.63,0,0,0-5.5,2l43.6,44.37A15.1,15.1,0,0,0,337.28,262.65Z"/><path class="cls-3" d="M336,151.84a100,100,0,1,0,100,100v-.1A100,100,0,0,0,336,151.84Zm0,186.62a86.67,86.67,0,1,1,86.67-86.67h0A86.67,86.67,0,0,1,336,338.46Z"/><circle class="cls-1" cx="100.05" cy="177.14" r="99.96"/><path class="cls-2" d="M100.05,129.31,60.2,221.25,63.92,225,100.06,209,136.2,225l3.72-3.72Z"/><path class="cls-3" d="M100.05,77.15a100,100,0,1,0,100,100v0A100,100,0,0,0,100.05,77.15Zm0,186.62a86.67,86.67,0,1,1,86.67-86.67v.05a86.68,86.68,0,0,1-86.67,86.66Z"/></g></g></svg>