<svg xmlns="http://www.w3.org/2000/svg" viewBox="0 0 420 550"><defs><style>.cls-1{fill:#e6e6e6;}.cls-2{fill:#fff;}.cls-3{fill:#f9a826;}</style></defs><g id="Layer_2" data-name="Layer 2"><g id="b692d93a-f629-4531-a33b-6f799117a7ad"><rect class="cls-1" width="420" height="550"/><rect class="cls-2" x="25" y="28.5" width="370" height="100"/><rect class="cls-2" x="164" y="162.5" width="230" height="360"/><rect class="cls-1" x="182.16" y="65.87" width="93.42" height="7.02"/><rect class="cls-1" x="169.66" y="84.11" width="117.57" height="7.02"/><rect class="cls-1" x="228.16" y="245.58" width="93.42" height="7.02"/><rect class="cls-3" x="228.16" y="266.19" width="144.27" height="7.02"/><rect class="cls-1" x="229.66" y="285.82" width="117.57" height="7.02"/><rect class="cls-1" x="228.16" y="307.36" width="68.64" height="7.02"/><rect class="cls-3" x="228.16" y="328.4" width="103.59" height="7.02"/><rect class="cls-1" x="185.58" y="243.37" width="11.44" height="11.44"/><rect class="cls-3" x="185.58" y="263.98" width="11.44" height="11.44"/><rect class="cls-1" x="185.58" y="283.61" width="11.44" height="11.44"/><rect class="cls-1" x="185.58" y="305.15" width="11.44" height="11.44"/><rect class="cls-3" x="185.58" y="326.19" width="11.44" height="11.44"/><rect class="cls-1" x="228.16" y="349.58" width="93.42" height="7.02"/><rect class="cls-3" x="228.16" y="370.19" width="144.27" height="7.02"/><rect class="cls-1" x="229.66" y="389.82" width="117.57" height="7.02"/><rect class="cls-1" x="228.16" y="411.36" width="68.64" height="7.02"/><rect class="cls-1" x="228.16" y="432.4" width="103.59" height="7.02"/><rect class="cls-1" x="185.58" y="347.37" width="11.44" height="11.44"/><rect class="cls-3" x="185.58" y="367.98" width="11.44" height="11.44"/><rect class="cls-1" x="185.58" y="387.61" width="11.44" height="11.44"/><rect class="cls-1" x="185.58" y="409.15" width="11.44" height="11.44"/><rect class="cls-1" x="185.58" y="430.19" width="11.44" height="11.44"/><path class="cls-3" d="M85.88,48.77A29.73,29.73,0,1,0,115.61,78.5,29.73,29.73,0,0,0,85.88,48.77Zm0,8.92A8.92,8.92,0,1,1,77,66.61h0A9,9,0,0,1,85.88,57.69Zm0,42.94a21.67,21.67,0,0,1-17.83-9.52c.14-6,11.89-9.22,17.83-9.22s17.7,3.27,17.84,9.22A21.7,21.7,0,0,1,85.88,100.63Z"/></g></g></svg>