<svg xmlns="http://www.w3.org/2000/svg" viewBox="0 0 302.18 163.51"><defs><style>.cls-1{fill:#f9a826;}.cls-2{fill:#3f3d56;}.cls-3{fill:#e2e2e2;}.cls-4{fill:#fff;}</style></defs><g id="Layer_2" data-name="Layer 2"><g id="b6c881ec-80a2-4aeb-a87c-bea63cd39014"><rect class="cls-1" x="171.18" y="99" width="118" height="5"/><rect class="cls-1" x="165.18" y="94" width="118" height="5"/><rect class="cls-1" x="172.18" y="89" width="118" height="5"/><rect class="cls-1" x="184.18" y="84" width="118" height="5"/><rect class="cls-2" x="83.78" y="61.9" width="4.1" height="29.09"/><rect class="cls-2" x="78.54" y="30.62" width="163.62" height="4.1" transform="translate(-0.51 62.7) rotate(-22.09)"/><rect class="cls-2" x="7.99" y="120.49" width="35.64" height="13.93"/><rect class="cls-2" x="11.27" y="132.78" width="175.76" height="15.57"/><polygon class="cls-3" points="40.15 140.57 82.35 140.57 82.35 87.51 50.8 87.51 40.15 114.27 40.15 140.57"/><rect class="cls-4" x="57.77" y="90.79" width="18.03" height="18.03"/><polygon class="cls-4" points="44.25 109.02 55.72 109.02 55.72 90.99 50.8 90.99 44.25 109.02"/><rect class="cls-2" x="70.88" y="119.06" width="4.1" height="7.78"/><path class="cls-2" d="M52.24,110.25H52a3.89,3.89,0,0,1-3.89-3.89h0a3.9,3.9,0,0,1,3.89-3.9h.21v7.79Z"/><path class="cls-2" d="M204.64,140.57h-.2a3.9,3.9,0,0,1-3.89-3.9h0a3.89,3.89,0,0,1,3.89-3.89h.2v7.79Z"/><path class="cls-3" d="M23.76,132.72A20.26,20.26,0,0,0,8,140.57H0l7.78-21.69L44,111.73l-1,28.84h-3.5A20.29,20.29,0,0,0,23.76,132.72Z"/><circle class="cls-2" cx="23.35" cy="145.69" r="17.82"/><circle class="cls-3" cx="23.35" cy="145.69" r="9.38"/><circle class="cls-2" cx="184.36" cy="147.74" r="15.57"/><circle class="cls-3" cx="184.36" cy="147.74" r="8.19"/><rect class="cls-2" x="81.12" y="80.14" width="8.6" height="62.07"/><rect class="cls-2" x="81.12" y="130.94" width="123.73" height="3.69"/><rect class="cls-2" x="49.78" y="109.84" width="4.1" height="1.64"/><path class="cls-2" d="M230.86,104a.46.46,0,0,1-.1-.32l5.65-53.43a.41.41,0,0,1,.41-.37h0a.42.42,0,0,1,.41.37l6.11,53.32a.42.42,0,0,1-.36.45h0l-11.76.11h0A.44.44,0,0,1,230.86,104Zm6-50-5.21,49.28,10.85-.1Z"/><path class="cls-2" d="M7.86,119.2l.19.07a3.89,3.89,0,0,1,2.26,5h0a3.88,3.88,0,0,1-5,2.26l-.19-.07h0l2.75-7.28Z"/><rect class="cls-2" x="234.96" y="0.04" width="4.1" height="59.82"/><circle class="cls-2" cx="85.83" cy="62.72" r="5.74"/><rect class="cls-1" x="94.18" y="126" width="118" height="5"/><rect class="cls-1" x="101.18" y="121" width="118" height="5"/><rect class="cls-1" x="96.18" y="117" width="118" height="5"/><rect class="cls-1" x="103.18" y="112" width="118" height="5"/></g></g></svg>